<?xml version="1.0" encoding="utf-8"?>
<!-- Generator: Adobe Illustrator 24.2.3, SVG Export Plug-In . SVG Version: 6.00 Build 0)  -->
<svg version="1.1" id="Capa_1" xmlns="http://www.w3.org/2000/svg" xmlns:xlink="http://www.w3.org/1999/xlink" x="0px" y="0px"
	 viewBox="0 0 121 122" style="enable-background:new 0 0 121 122;" xml:space="preserve">
<style type="text/css">
	.st0{fill:#005F5E;}
	.st1{fill:#00A99D;}
</style>
<g>
	<path class="st0" d="M34.8,48.1c-0.3,0-0.5,0-0.7,0c-2.1,0.2-4,1.2-5.4,2.6l-5.1,5.1l-5.1-5.1c-1.5-1.4-3.3-2.5-5.4-2.6
		c-0.3,0-0.5,0-0.7,0c-2.2,0-4.3,0.9-5.9,2.4c-1.8,1.8-2.6,4.2-2.4,6.7c0.2,2,1.2,3.9,2.6,5.4l2,2v18.4c0,0.6,0.2,1.2,0.7,1.6l5,5
		c0.4,0.4,0.7,1,0.7,1.6v10.8h16.5V71.6l9-9c1.4-1.4,2.4-3.3,2.6-5.4c0.2-2.5-0.6-5-2.4-6.7C39.1,49,37,48.1,34.8,48.1z M28.5,99.2
		H18v-9.1c0-0.6-0.2-1.2-0.7-1.6l-5-5c-0.4-0.4-0.7-1-0.7-1.6V66.2h3v8.4c0,0.3,0.3,0.6,0.6,0.6H20c0.3,0,0.6,0.3,0.6,0.6v5.4
		c0,0.5,0.6,0.8,1,0.4l2-2l4.9-4.9V99.2z"/>
	<path class="st0" d="M114.5,50.6c-1.6-1.6-3.7-2.4-5.9-2.4c-0.2,0-0.5,0-0.7,0c-2.1,0.2-4,1.2-5.4,2.6l-5.1,5.1l-5.1-5.1
		c-1.5-1.4-3.4-2.5-5.4-2.6c-0.2,0-0.5,0-0.7,0c-2.2,0-4.3,0.9-5.9,2.4c-1.8,1.8-2.6,4.2-2.4,6.7c0.2,2,1.2,3.9,2.6,5.4l2,2v18.4
		c0,0.6,0.2,1.2,0.7,1.6l5,5c0.4,0.4,0.7,1,0.7,1.6v10.8h16.5V71.6l9-9c1.4-1.4,2.4-3.3,2.6-5.4C117.2,54.8,116.3,52.3,114.5,50.6z
		 M102.4,99.2H91.8v-9.1c0-0.6-0.2-1.2-0.7-1.6l-5-5c-0.4-0.4-0.7-1-0.7-1.6V66.2h3v8.4c0,0.3,0.3,0.6,0.6,0.6h4.8
		c0.3,0,0.6,0.3,0.6,0.6v5.4c0,0.5,0.6,0.8,1,0.4l2-2l0,0l4.9-4.9V99.2z"/>
</g>
<path class="st1" d="M62,63.7c-0.4,0.4-1,0.1-1-0.4v-5.4c0-0.3-0.3-0.6-0.6-0.6h-4.8c-0.3,0-0.6-0.3-0.6-0.6v-8.4h-3V64
	c0,0.6,0.2,1.2,0.7,1.6l5,5c0.4,0.4,0.7,1,0.7,1.6v26.9h10.5V56.8L64,61.7L62,63.7z"/>
<path class="st0" d="M85.1,40.6c1.4-1.4,2.4-3.3,2.6-5.4c0.2-2.5-0.6-5-2.4-6.7c-1.8-1.7-4.1-2.6-6.6-2.4c-2.1,0.2-4,1.2-5.4,2.6
	l-8.9,8.9c-0.2,0.2-0.6,0.2-0.8,0l-8.9-8.9c-1.5-1.5-3.3-2.5-5.4-2.6c-2.5-0.2-4.9,0.7-6.6,2.4c-1.8,1.8-2.6,4.2-2.4,6.7
	c0.2,2,1.2,3.9,2.6,5.4l6.2,6.2v18.4c0,0.6,0.2,1.2,0.7,1.6l5,5c0.4,0.4,0.7,1,0.7,1.6v28.7h16.5V53.8L85.1,40.6z M68.9,99.2H58.4
	V72.3c0-0.6-0.2-1.2-0.7-1.6l-5-5c-0.4-0.4-0.7-1-0.7-1.6V48.4h3v8.4c0,0.3,0.3,0.6,0.6,0.6h4.8c0.3,0,0.6,0.3,0.6,0.6v5.4
	c0,0.5,0.6,0.8,1,0.4l2-2l4.9-4.9V99.2z"/>
</svg>
