<svg xmlns="http://www.w3.org/2000/svg" width="127.149" height="133.46" viewBox="0 0 127.149 133.46">
  <g id="Grupo_31" data-name="Grupo 31" transform="translate(-1000.689 -492.299)">
    <path id="Trazado_24" data-name="Trazado 24" d="M1085.448,610.3v15.459h-63.555c0-.639,0-1.277,0-1.915-.039-6.031.049-12.066-.15-18.092a45.511,45.511,0,0,0-7.278-23.025c-2.82-4.486-5.8-8.891-8.3-13.556a46.368,46.368,0,0,1-5.22-27.039,60.011,60.011,0,0,1,8.806-26.769,46.081,46.081,0,0,1,24.913-19.317,69.983,69.983,0,0,1,43.477-.559c13.34,4.054,23.062,12.578,29.055,25.241a64.19,64.19,0,0,1,5.255,17.925,6.638,6.638,0,0,0,.943,2.448c4.217,6.711,8.38,13.46,12.763,20.062,3.363,5.065,1.332,10.341-3.126,12.4-2.019.933-3.866,2.237-5.867,3.216a2.185,2.185,0,0,0-1.347,2.355c.052,3.182.17,6.378-.056,9.546-.747,10.462-6.474,17.144-16.13,20.692a22.458,22.458,0,0,1-9.725,1.2C1088.524,610.456,1087.133,610.4,1085.448,610.3Zm-57.494-63.257a27.239,27.239,0,1,0,27.239-27.279A27.292,27.292,0,0,0,1027.954,547.043Z" fill="#005f5e"/>
    <g id="Grupo_30" data-name="Grupo 30">
      <path id="Trazado_25" data-name="Trazado 25" d="M1072.261,542.649l-8.041,8.041-10.028,10.043-10.029-10.043-8.041-8.041a7.091,7.091,0,0,1,10.029-10.028l8.041,8.04,8.041-8.04a7.091,7.091,0,0,1,10.028,10.028Z" fill="#005f5e"/>
    </g>
  </g>
</svg>
