<?xml version="1.0" encoding="utf-8"?>
<!-- Generator: Adobe Illustrator 24.2.3, SVG Export Plug-In . SVG Version: 6.00 Build 0)  -->
<svg version="1.1" id="Layer_1" xmlns="http://www.w3.org/2000/svg" xmlns:xlink="http://www.w3.org/1999/xlink" x="0px" y="0px"
	 viewBox="0 0 34 35" style="enable-background:new 0 0 34 35;" xml:space="preserve">
<style type="text/css">
	.st0{clip-path:url(#SVGID_2_);}
	.st1{fill:#015D5D;}
	.st2{fill:#FFFFFF;}
	.st3{clip-path:url(#SVGID_2_);fill:#FFFFFF;}
	.st4{clip-path:url(#SVGID_2_);fill:#015D5D;}
	.st5{fill:none;stroke:#015D5D;stroke-width:3;stroke-linecap:round;stroke-linejoin:round;stroke-miterlimit:10;}
	.st6{clip-path:url(#SVGID_4_);}
</style>
<text transform="matrix(1 0 0 1 168.3472 92.4434)" class="st1" style="font-family:'Poppins-Bold'; font-size:18px;">Community Building</text>
<g>
	<g>
		<defs>
			<rect id="SVGID_1_" x="-10" y="0.5" width="54" height="32.5"/>
		</defs>
		<clipPath id="SVGID_2_">
			<use xlink:href="#SVGID_1_"  style="overflow:visible;"/>
		</clipPath>
		<g class="st0">
			<g>
				<rect x="1.8" y="10" class="st1" width="3" height="24"/>
				<rect x="29.2" y="10" transform="matrix(-1 -4.486867e-11 4.486867e-11 -1 61.5 44)" class="st1" width="3" height="24"/>
			</g>
			<rect x="4" y="12" class="st2" width="26" height="1.8"/>
			<rect x="4" y="15.5" class="st2" width="26" height="1.8"/>
			<rect x="4" y="19.1" class="st2" width="26" height="1.8"/>
			<rect x="4" y="22.6" class="st2" width="26" height="1.8"/>
			<rect x="4" y="26.1" class="st2" width="26" height="1.8"/>
		</g>
		<rect x="15" y="28" class="st3" width="4" height="7"/>
		<rect x="6.2" y="5.5" class="st4" width="3" height="28"/>
		<rect x="24.8" y="5.5" transform="matrix(-1 -4.486867e-11 4.486867e-11 -1 52.5 39)" class="st4" width="3" height="28"/>
		<rect x="8.5" y="8" class="st3" width="17" height="2"/>
		<rect x="8.5" y="12" class="st3" width="17" height="2"/>
		<rect x="8.5" y="16" class="st3" width="17" height="2"/>
		<rect x="8.5" y="20" class="st3" width="17" height="2"/>
		<rect x="8.5" y="24" class="st3" width="17" height="2"/>
	</g>
	<g>
		<rect x="10.5" class="st1" width="13" height="33"/>
	</g>
	<rect x="12.5" y="3" class="st2" width="9" height="2"/>
	<rect x="12.5" y="8" class="st2" width="9" height="2"/>
	<rect x="12.5" y="13" class="st2" width="9" height="2"/>
	<rect x="12.5" y="18" class="st2" width="9" height="2"/>
	<rect x="12.5" y="23" class="st2" width="9" height="2"/>
</g>
<text transform="matrix(1 0 0 1 172.3472 23.4434)" class="st1" style="font-family:'Poppins-Bold'; font-size:18px;">Housing Justice</text>
<polyline class="st5" points="41,-62.1 58,-76.3 74,-63 "/>
<g>
	<polygon class="st1" points="71.2,-60.8 58,-71.8 43.8,-59.9 43.8,-44.3 71.2,-44.3 	"/>
</g>
<g>
	<defs>
		<polygon id="SVGID_3_" points="71.2,-60.8 58,-71.8 43.8,-59.9 43.8,-44.3 71.2,-44.3 		"/>
	</defs>
	<clipPath id="SVGID_4_">
		<use xlink:href="#SVGID_3_"  style="overflow:visible;"/>
	</clipPath>
	<g class="st6">
		<path class="st2" d="M77.5-36.9L77.5-36.9c-0.7,0.7-1.8,0.7-2.5,0L58.2-53.6l2.5-2.5l16.7,16.7C78.2-38.7,78.2-37.6,77.5-36.9z"/>
		
			<rect x="52.3" y="-60.4" transform="matrix(0.7071 -0.7071 0.7071 0.7071 57.1375 23.7491)" class="st2" width="9.8" height="6.7"/>
		<g>
			<path class="st2" d="M58.5-64.5l-0.2,0.2l6.1,6.1l0.2-0.2c0.6-0.6,0.6-1.6,0-2.3l-3.9-3.9C60.1-65.1,59.1-65.1,58.5-64.5z"/>
			<path class="st2" d="M50.1-56.1l-0.2,0.2c-0.6,0.6-0.6,1.6,0,2.3l3.9,3.9c0.6,0.6,1.6,0.6,2.3,0l0.2-0.2L50.1-56.1z"/>
		</g>
	</g>
</g>
</svg>
