<?xml version="1.0" encoding="utf-8"?>
<!-- Generator: Adobe Illustrator 24.2.3, SVG Export Plug-In . SVG Version: 6.00 Build 0)  -->
<svg version="1.1" id="Capa_1" xmlns="http://www.w3.org/2000/svg" xmlns:xlink="http://www.w3.org/1999/xlink" x="0px" y="0px"
	 viewBox="0 0 60.2 70.3" style="enable-background:new 0 0 60.2 70.3;" xml:space="preserve">
<style type="text/css">
	.st0{fill:#005F5E;}
	.st1{fill:#FFFFFF;}
</style>
<g>
	<path class="st0" d="M12.9,42.5c0-0.9,0-1.5,0-2c0-9.9,0-19.7,0-29.6c0-3,1.8-5.2,4.4-5.5c3.2-0.4,5.8,1.8,5.8,5.1
		c0,5.4,0,10.9,0,16.3c0,0.5,0,1,0,1.6c1.3,0,1.6-0.7,1.6-1.8c0-6.9,0-13.8,0-20.8c0-2.7,1.6-4.6,4.1-5.2c2.6-0.6,5.4,1.2,5.9,3.8
		c0.1,0.8,0.1,1.5,0.2,2.3c0,5.6,0,11.3,0,16.9c0,0.8,0,1.6,1.4,1.2c0-0.6,0-1.2,0-1.9c0-3.8-0.1-7.6,0-11.4c0-1.3,0.3-2.7,0.9-3.9
		c1-2.1,3.4-2.9,5.7-2.3c2,0.5,3.6,2.5,3.6,4.7c0,5.5,0,11,0,16.4c0,1,0.1,1.7,1.5,1.9c0-0.5,0.1-1,0.1-1.5c0-3.8,0-7.6,0-11.4
		c0-3.3,2-5.5,5-5.5c3.1,0,5.2,2.2,5.3,5.6c0,6.8,0,13.7,0,20.5c0,2.8,0,5.7,0,8.5c0,1.5-0.9,2.4-2,2.2c-1.2-0.2-1.7-1.2-1.4-2.7
		c0.7-3.2-0.8-6.6-3.5-8.2c-3.1-1.8-6.8-1.5-9.3,0.9c-1.8,1.7-3.6,3.5-5.3,5.3c-0.8,0.9-1.4,0.8-2.2,0c-1.6-1.7-3.2-3.3-4.9-4.9
		c-3.3-3.2-8.1-3.3-11.2-0.1c-3,3.1-3,7.9,0.2,11.1c3.7,3.8,7.5,7.5,11.2,11.2c0.5,0.5,1.1,1.1,1.5,1.7c1.2,1.6,1.1,3.6-0.1,5.2
		c-1.3,1.7-3.4,2.7-5.2,1.7c-2.2-1.2-4.5-2.5-6.3-4.2C14.1,58.6,8.7,53,3.2,47.5c-2.2-2.2-2.3-5.4-0.4-7.4c1.9-2,5-2.1,7.3-0.1
		C10.9,40.7,11.7,41.5,12.9,42.5z"/>
</g>
</svg>
