<?xml version="1.0" encoding="utf-8"?>
<!-- Generator: Adobe Illustrator 24.2.3, SVG Export Plug-In . SVG Version: 6.00 Build 0)  -->
<svg version="1.1" id="Capa_1" xmlns="http://www.w3.org/2000/svg" xmlns:xlink="http://www.w3.org/1999/xlink" x="0px" y="0px"
	 viewBox="0 0 121 122" style="enable-background:new 0 0 121 122;" xml:space="preserve">
<style type="text/css">
	.st0{fill:#005F5E;}
</style>
<g>
	<path class="st0" d="M408.8-66.3c1.5-1.5,2.5-3.3,2.7-5.4c0.2-2.5-0.6-5-2.4-6.8c-1.8-1.8-4.2-2.7-6.7-2.4c-2.1,0.2-4,1.2-5.5,2.7
		l-9,9c-0.2,0.2-0.6,0.2-0.8,0l-8.9-9c-1.5-1.5-3.4-2.5-5.5-2.7c-2.5-0.2-4.9,0.7-6.7,2.4c-1.8,1.8-2.7,4.2-2.4,6.8
		c0.2,2.1,1.2,3.9,2.7,5.4l6.3,6.3v18.6c0,0.6,0.2,1.2,0.7,1.6l5,5c0.4,0.4,0.7,1,0.7,1.6v28.9h16.6V-53L408.8-66.3z M392.6-7.3
		h-10.6v-27.1c0-0.6-0.2-1.2-0.7-1.6l-5-5c-0.4-0.4-0.7-1-0.7-1.6v-15.8h3v8.4c0,0.3,0.3,0.6,0.6,0.6h4.8c0.3,0,0.6,0.3,0.6,0.6v5.5
		c0,0.5,0.6,0.8,1,0.4l2-2l5-5V-7.3z"/>
	<path class="st0" d="M358.2-58.7c-0.3,0-0.5,0-0.7,0c-2.1,0.2-4,1.2-5.5,2.7l-5.1,5.1l-5.1-5.1c-1.5-1.5-3.4-2.5-5.5-2.7
		c-0.3,0-0.5,0-0.7,0c-2.2,0-4.3,0.9-5.9,2.5c-1.8,1.8-2.7,4.2-2.4,6.8c0.2,2.1,1.2,3.9,2.7,5.4l2.1,2.1v18.6c0,0.6,0.2,1.2,0.7,1.6
		l5,5c0.4,0.4,0.7,1,0.7,1.6v10.9h16.6V-35l9.1-9.1c1.5-1.5,2.5-3.3,2.7-5.4c0.2-2.5-0.6-5-2.4-6.8
		C362.5-57.8,360.4-58.7,358.2-58.7z M351.8-7.3h-10.6v-9.2c0-0.6-0.2-1.2-0.7-1.6l-5-5c-0.4-0.4-0.7-1-0.7-1.6v-15.8h3v8.4
		c0,0.3,0.3,0.6,0.6,0.6h4.8c0.3,0,0.6,0.3,0.6,0.6v5.5c0,0.5,0.6,0.8,1,0.4l2-2l5-5V-7.3z"/>
	<path class="st0" d="M438.5-56.3c-1.6-1.6-3.7-2.5-5.9-2.5c-0.2,0-0.5,0-0.7,0c-2.1,0.2-4,1.2-5.5,2.7l-5.1,5.1l-5.1-5.1
		c-1.5-1.5-3.4-2.5-5.5-2.7c-0.2,0-0.5,0-0.7,0c-2.2,0-4.3,0.9-5.9,2.5c-1.8,1.8-2.7,4.2-2.4,6.8c0.2,2.1,1.2,3.9,2.7,5.4l2.1,2.1
		v18.6c0,0.6,0.2,1.2,0.7,1.6l5,5c0.4,0.4,0.7,1,0.7,1.6v10.9h16.6V-35l9.1-9.1c1.5-1.5,2.5-3.3,2.7-5.4
		C441.2-52,440.3-54.5,438.5-56.3z M426.3-7.3h-10.6v-9.2c0-0.6-0.2-1.2-0.7-1.6l-5-5c-0.4-0.4-0.7-1-0.7-1.6v-15.8h3v8.4
		c0,0.3,0.3,0.6,0.6,0.6h4.8c0.3,0,0.6,0.3,0.6,0.6v5.5c0,0.5,0.6,0.8,1,0.4l2-2l0,0l5-5V-7.3z"/>
</g>
<g>
	<circle class="st0" cx="60.5" cy="16.5" r="8"/>
	<g>
		<path class="st0" d="M81,20.4L70.2,31.1C69.4,32,69,33.1,69,34.2v37.5h-5.7V49.5h-5.6v22.3H52V34.2c0-1.1-0.5-2.2-1.3-3.1L40,20.4
			l4-4l12.4,12.4l3.3,3.3c0.4,0.4,1.1,0.4,1.5,0l3.3-3.3L77,16.4L81,20.4z"/>
	</g>
	<path class="st0" d="M88.8,86.3L77.3,94c-0.3,0.2-0.7,0-0.7-0.4v-4.8H63.3v13.3h4.8c0.3,0,0.6,0.4,0.4,0.7l-7.7,11.5
		c-0.2,0.3-0.5,0.3-0.7,0l-7.7-11.5c-0.2-0.3,0-0.7,0.4-0.7h4.9V88.7H44.3v4.8c0,0.3-0.4,0.6-0.7,0.4l-11.5-7.7
		c-0.3-0.2-0.3-0.5,0-0.7l11.5-7.7c0.3-0.2,0.7,0,0.7,0.3v4.9H52v-5.7h5.7v8.5c0,1.6,1.3,2.8,2.8,2.8c1.6,0,2.8-1.3,2.8-2.8v-8.5H69
		v5.7h7.6v-4.9c0-0.3,0.4-0.5,0.7-0.3l11.5,7.7C89.1,85.7,89.1,86.1,88.8,86.3z"/>
</g>
</svg>
