<svg xmlns="http://www.w3.org/2000/svg" width="85.245" height="107.9" viewBox="0 0 85.245 107.9">
  <g id="Grupo_25" data-name="Grupo 25" transform="translate(-1428.872 -520.652)">
    <g id="Grupo_23" data-name="Grupo 23">
      <path id="Trazado_19" data-name="Trazado 19" d="M1474.013,525.657v55.03H1457.3v42.02a5.84,5.84,0,0,1-5.841,5.84h0a5.84,5.84,0,0,1-5.84-5.84v-42.02h-16.75v-55.03a5,5,0,0,1,5-5h6.67V566.5a2.515,2.515,0,0,0,2.515,2.515h.05a2.515,2.515,0,0,0,2.515-2.515V520.657H1457.3V566.5a2.515,2.515,0,0,0,2.514,2.515h0a2.515,2.515,0,0,0,2.515-2.515V520.657h6.681A5,5,0,0,1,1474.013,525.657Z" fill="#005f5e"/>
    </g>
    <g id="Grupo_24" data-name="Grupo 24">
      <path id="Trazado_20" data-name="Trazado 20" d="M1514.117,520.652v102.06a5.839,5.839,0,0,1-5.84,5.84h0a5.84,5.84,0,0,1-5.84-5.84V580.686h-16.75v-31.6a28.431,28.431,0,0,1,28.43-28.431Z" fill="#005f5e"/>
    </g>
  </g>
</svg>
