<?xml version="1.0" encoding="utf-8"?>
<!-- Generator: Adobe Illustrator 24.2.3, SVG Export Plug-In . SVG Version: 6.00 Build 0)  -->
<svg version="1.1" id="Capa_1" xmlns="http://www.w3.org/2000/svg" xmlns:xlink="http://www.w3.org/1999/xlink" x="0px" y="0px"
	 viewBox="0 0 121 122" style="enable-background:new 0 0 121 122;" xml:space="preserve">
<style type="text/css">
	.st0{fill:#005F5E;}
</style>
<path class="st0" d="M100.4,21.6c-22.2-22.2-58.1-22.2-80.3,0s-22.2,58.1,0,80.3s58.1,22.2,80.3,0S122.5,43.8,100.4,21.6z
	 M112.6,48.5C112.6,48.5,112.6,48.5,112.6,48.5c0.4,1.5,0.7,3.1,1,4.6c-0.3,0.1-0.6,0.2-1,0.2c-1.3,0-2.4-1.1-2.4-2.4
	S111.3,48.5,112.6,48.5z M112.6,58.1c0.6,0,1.2,0.2,1.6,0.6c0.1,1.2,0.1,2.3,0.1,3.5c-0.4,0.4-1,0.7-1.7,0.7c-1.3,0-2.4-1.1-2.4-2.4
	C110.2,59.2,111.3,58.1,112.6,58.1z M106.7,34c0.8,1.3,1.5,2.7,2.2,4.1c-0.4,0.4-1,0.7-1.7,0.7c-1.3,0-2.4-1.1-2.4-2.4
	C104.8,35.2,105.6,34.3,106.7,34z M102.4,29.1c0.5,0,0.9,0.1,1.2,0.3c0.4,0.5,0.8,1.1,1.1,1.6c0,0.2,0,0.3,0,0.5
	c0,1.3-1.1,2.4-2.4,2.4s-2.4-1.1-2.4-2.4C100,30.2,101,29.1,102.4,29.1z M102.4,38.8c1.3,0,2.4,1.1,2.4,2.4c0,1.3-1.1,2.4-2.4,2.4
	s-2.4-1.1-2.4-2.4C100,39.9,101,38.8,102.4,38.8z M102.4,48.5c1.3,0,2.4,1.1,2.4,2.4s-1.1,2.4-2.4,2.4s-2.4-1.1-2.4-2.4
	S101,48.5,102.4,48.5z M102.4,58.1c1.3,0,2.4,1.1,2.4,2.4c0,1.3-1.1,2.4-2.4,2.4s-2.4-1.1-2.4-2.4C100,59.2,101,58.1,102.4,58.1z
	 M102.4,67.8c1.3,0,2.4,1.1,2.4,2.4c0,1.3-1.1,2.4-2.4,2.4s-2.4-1.1-2.4-2.4C100,68.9,101,67.8,102.4,67.8z M102.4,77.4
	c1.3,0,2.4,1.1,2.4,2.4c0,1.3-1.1,2.4-2.4,2.4s-2.4-1.1-2.4-2.4C100,78.5,101,77.4,102.4,77.4z M92.2,19.5c1.3,0,2.4,1.1,2.4,2.4
	c0,1.3-1.1,2.4-2.4,2.4c-1.3,0-2.4-1.1-2.4-2.4C89.7,20.6,90.8,19.5,92.2,19.5z M92.2,29.1c1.3,0,2.4,1.1,2.4,2.4
	c0,1.3-1.1,2.4-2.4,2.4c-1.3,0-2.4-1.1-2.4-2.4C89.7,30.2,90.8,29.1,92.2,29.1z M92.2,38.8c1.3,0,2.4,1.1,2.4,2.4
	c0,1.3-1.1,2.4-2.4,2.4c-1.3,0-2.4-1.1-2.4-2.4C89.7,39.9,90.8,38.8,92.2,38.8z M92.2,48.5c1.3,0,2.4,1.1,2.4,2.4s-1.1,2.4-2.4,2.4
	c-1.3,0-2.4-1.1-2.4-2.4S90.8,48.5,92.2,48.5z M92.2,58.1c1.3,0,2.4,1.1,2.4,2.4c0,1.3-1.1,2.4-2.4,2.4c-1.3,0-2.4-1.1-2.4-2.4
	C89.7,59.2,90.8,58.1,92.2,58.1z M92.2,67.8c1.3,0,2.4,1.1,2.4,2.4c0,1.3-1.1,2.4-2.4,2.4c-1.3,0-2.4-1.1-2.4-2.4
	C89.7,68.9,90.8,67.8,92.2,67.8z M92.2,77.4c1.3,0,2.4,1.1,2.4,2.4c0,1.3-1.1,2.4-2.4,2.4c-1.3,0-2.4-1.1-2.4-2.4
	C89.7,78.5,90.8,77.4,92.2,77.4z M92.2,87.1c1.3,0,2.4,1.1,2.4,2.4c0,1.3-1.1,2.4-2.4,2.4c-1.3,0-2.4-1.1-2.4-2.4
	C89.7,88.2,90.8,87.1,92.2,87.1z M79.7,11.3c1.5,0.6,3,1.2,4.4,1.9c-0.4,0.8-1.2,1.4-2.2,1.4c-1.3,0-2.4-1.1-2.4-2.4
	C79.5,11.9,79.6,11.6,79.7,11.3z M81.9,29.1c1.3,0,2.4,1.1,2.4,2.4c0,1.3-1.1,2.4-2.4,2.4c-1.3,0-2.4-1.1-2.4-2.4
	C79.5,30.2,80.6,29.1,81.9,29.1z M81.9,38.8c1.3,0,2.4,1.1,2.4,2.4c0,1.3-1.1,2.4-2.4,2.4c-1.3,0-2.4-1.1-2.4-2.4
	C79.5,39.9,80.6,38.8,81.9,38.8z M81.9,48.5c1.3,0,2.4,1.1,2.4,2.4s-1.1,2.4-2.4,2.4c-1.3,0-2.4-1.1-2.4-2.4S80.6,48.5,81.9,48.5z
	 M81.9,58.1c1.3,0,2.4,1.1,2.4,2.4c0,1.3-1.1,2.4-2.4,2.4c-1.3,0-2.4-1.1-2.4-2.4C79.5,59.2,80.6,58.1,81.9,58.1z M81.9,67.8
	c1.3,0,2.4,1.1,2.4,2.4c0,1.3-1.1,2.4-2.4,2.4c-1.3,0-2.4-1.1-2.4-2.4C79.5,68.9,80.6,67.8,81.9,67.8z M81.9,96.8
	c1.3,0,2.4,1.1,2.4,2.4c0,1.3-1.1,2.4-2.4,2.4c-1.3,0-2.4-1.1-2.4-2.4C79.5,97.8,80.6,96.8,81.9,96.8z M71.7,48.5
	c1.3,0,2.4,1.1,2.4,2.4s-1.1,2.4-2.4,2.4c-1.3,0-2.4-1.1-2.4-2.4S70.4,48.5,71.7,48.5z M71.7,58.1c1.3,0,2.4,1.1,2.4,2.4
	c0,1.3-1.1,2.4-2.4,2.4c-1.3,0-2.4-1.1-2.4-2.4C69.3,59.2,70.4,58.1,71.7,58.1z M61.5,19.5c1.3,0,2.4,1.1,2.4,2.4
	c0,1.3-1.1,2.4-2.4,2.4c-1.3,0-2.4-1.1-2.4-2.4C59.1,20.6,60.2,19.5,61.5,19.5z M51.3,9.8c1.3,0,2.4,1.1,2.4,2.4
	c0,1.3-1.1,2.4-2.4,2.4s-2.4-1.1-2.4-2.4C48.9,10.9,50,9.8,51.3,9.8z M51.3,19.5c1.3,0,2.4,1.1,2.4,2.4c0,1.3-1.1,2.4-2.4,2.4
	s-2.4-1.1-2.4-2.4C48.9,20.6,50,19.5,51.3,19.5z M51.3,77.4c1.3,0,2.4,1.1,2.4,2.4c0,1.3-1.1,2.4-2.4,2.4s-2.4-1.1-2.4-2.4
	C48.9,78.5,50,77.4,51.3,77.4z M51.3,87.1c1.3,0,2.4,1.1,2.4,2.4c0,1.3-1.1,2.4-2.4,2.4s-2.4-1.1-2.4-2.4
	C48.9,88.2,50,87.1,51.3,87.1z M51.3,96.8c1.3,0,2.4,1.1,2.4,2.4c0,1.3-1.1,2.4-2.4,2.4s-2.4-1.1-2.4-2.4
	C48.9,97.8,50,96.8,51.3,96.8z M41.1,19.5c1.3,0,2.4,1.1,2.4,2.4c0,1.3-1.1,2.4-2.4,2.4c-1.3,0-2.4-1.1-2.4-2.4
	C38.7,20.6,39.8,19.5,41.1,19.5z M41.1,29.1c1.3,0,2.4,1.1,2.4,2.4c0,1.3-1.1,2.4-2.4,2.4c-1.3,0-2.4-1.1-2.4-2.4
	C38.7,30.2,39.8,29.1,41.1,29.1z M41.1,67.8c1.3,0,2.4,1.1,2.4,2.4c0,1.3-1.1,2.4-2.4,2.4c-1.3,0-2.4-1.1-2.4-2.4
	C38.7,68.9,39.8,67.8,41.1,67.8z M41.1,77.4c1.3,0,2.4,1.1,2.4,2.4c0,1.3-1.1,2.4-2.4,2.4c-1.3,0-2.4-1.1-2.4-2.4
	C38.7,78.5,39.8,77.4,41.1,77.4z M41.1,87.1c1.3,0,2.4,1.1,2.4,2.4c0,1.3-1.1,2.4-2.4,2.4c-1.3,0-2.4-1.1-2.4-2.4
	C38.7,88.2,39.8,87.1,41.1,87.1z M31.1,19.5c1.3,0,2.4,1.1,2.4,2.4c0,1.3-1.1,2.4-2.4,2.4c-1.3,0-2.4-1.1-2.4-2.4
	C28.7,20.6,29.8,19.5,31.1,19.5z M31.1,29.1c1.3,0,2.4,1.1,2.4,2.4c0,1.3-1.1,2.4-2.4,2.4c-1.3,0-2.4-1.1-2.4-2.4
	C28.7,30.2,29.8,29.1,31.1,29.1z M31.1,38.8c1.3,0,2.4,1.1,2.4,2.4c0,1.3-1.1,2.4-2.4,2.4c-1.3,0-2.4-1.1-2.4-2.4
	C28.7,39.9,29.8,38.8,31.1,38.8z M31.1,67.8c1.3,0,2.4,1.1,2.4,2.4c0,1.3-1.1,2.4-2.4,2.4c-1.3,0-2.4-1.1-2.4-2.4
	C28.7,68.9,29.8,67.8,31.1,67.8z M31.1,77.4c1.3,0,2.4,1.1,2.4,2.4c0,1.3-1.1,2.4-2.4,2.4c-1.3,0-2.4-1.1-2.4-2.4
	C28.7,78.5,29.8,77.4,31.1,77.4z M21.1,29.1c1.3,0,2.4,1.1,2.4,2.4c0,1.3-1.1,2.4-2.4,2.4c-1.3,0-2.4-1.1-2.4-2.4
	C18.7,30.2,19.8,29.1,21.1,29.1z M21.1,38.8c1.3,0,2.4,1.1,2.4,2.4c0,1.3-1.1,2.4-2.4,2.4c-1.3,0-2.4-1.1-2.4-2.4
	C18.7,39.9,19.8,38.8,21.1,38.8z M21.1,48.5c1.3,0,2.4,1.1,2.4,2.4s-1.1,2.4-2.4,2.4c-1.3,0-2.4-1.1-2.4-2.4S19.8,48.5,21.1,48.5z
	 M21.1,67.8c1.3,0,2.4,1.1,2.4,2.4c0,1.3-1.1,2.4-2.4,2.4c-1.3,0-2.4-1.1-2.4-2.4C18.7,68.9,19.8,67.8,21.1,67.8z M11.2,38.8
	c1.3,0,2.4,1.1,2.4,2.4c0,1.3-1.1,2.4-2.4,2.4c-0.6,0-1.2-0.3-1.7-0.7C10,41.5,10.6,40.2,11.2,38.8z M11.2,48.5
	c1.3,0,2.4,1.1,2.4,2.4s-1.1,2.4-2.4,2.4s-2.4-1.1-2.4-2.4S9.8,48.5,11.2,48.5z M11.2,62.9c-1.3,0-2.4-1.1-2.4-2.4
	c0-1.3,1.1-2.4,2.4-2.4s2.4,1.1,2.4,2.4C13.6,61.9,12.5,62.9,11.2,62.9z M16,67.8c-1.3,0-2.4-1.1-2.4-2.4c0-1.3,1.1-2.4,2.4-2.4
	c1.3,0,2.4,1.1,2.4,2.4C18.4,66.7,17.3,67.8,16,67.8z M16,58.1c-1.3,0-2.4-1.1-2.4-2.4s1.1-2.4,2.4-2.4c1.3,0,2.4,1.1,2.4,2.4
	S17.3,58.1,16,58.1z M16,48.5c-1.3,0-2.4-1.1-2.4-2.4c0-1.3,1.1-2.4,2.4-2.4c1.3,0,2.4,1.1,2.4,2.4C18.4,47.4,17.3,48.5,16,48.5z
	 M16,38.8c-1.3,0-2.4-1.1-2.4-2.4c0-1.3,1.1-2.4,2.4-2.4c1.3,0,2.4,1.1,2.4,2.4C18.4,37.7,17.3,38.8,16,38.8z M21.1,82.3
	c-1.3,0-2.4-1.1-2.4-2.4c0-1.3,1.1-2.4,2.4-2.4c1.3,0,2.4,1.1,2.4,2.4C23.6,81.2,22.5,82.3,21.1,82.3z M26,87.1
	c-1.3,0-2.4-1.1-2.4-2.4c0-1.3,1.1-2.4,2.4-2.4c1.3,0,2.4,1.1,2.4,2.4C28.4,86,27.3,87.1,26,87.1z M26,77.4c-1.3,0-2.4-1.1-2.4-2.4
	c0-1.3,1.1-2.4,2.4-2.4c1.3,0,2.4,1.1,2.4,2.4C28.4,76.4,27.3,77.4,26,77.4z M26,67.8c-1.3,0-2.4-1.1-2.4-2.4c0-1.3,1.1-2.4,2.4-2.4
	c1.3,0,2.4,1.1,2.4,2.4C28.4,66.7,27.3,67.8,26,67.8z M26,48.5c-1.3,0-2.4-1.1-2.4-2.4c0-1.3,1.1-2.4,2.4-2.4c1.3,0,2.4,1.1,2.4,2.4
	C28.4,47.4,27.3,48.5,26,48.5z M26,38.8c-1.3,0-2.4-1.1-2.4-2.4c0-1.3,1.1-2.4,2.4-2.4c1.3,0,2.4,1.1,2.4,2.4
	C28.4,37.7,27.3,38.8,26,38.8z M26,29.1c-1.3,0-2.4-1.1-2.4-2.4s1.1-2.4,2.4-2.4c1.3,0,2.4,1.1,2.4,2.4S27.3,29.1,26,29.1z
	 M31.1,91.9c-1.3,0-2.4-1.1-2.4-2.4c0-1.3,1.1-2.4,2.4-2.4c1.3,0,2.4,1.1,2.4,2.4C33.5,90.8,32.5,91.9,31.1,91.9z M35.9,96.8
	c-1.3,0-2.4-1.1-2.4-2.4c0-1.3,1.1-2.4,2.4-2.4s2.4,1.1,2.4,2.4C38.4,95.7,37.3,96.8,35.9,96.8z M35.9,87.1c-1.3,0-2.4-1.1-2.4-2.4
	c0-1.3,1.1-2.4,2.4-2.4s2.4,1.1,2.4,2.4C38.4,86,37.3,87.1,35.9,87.1z M35.9,77.4c-1.3,0-2.4-1.1-2.4-2.4c0-1.3,1.1-2.4,2.4-2.4
	s2.4,1.1,2.4,2.4C38.4,76.4,37.3,77.4,35.9,77.4z M35.9,67.8c-1.3,0-2.4-1.1-2.4-2.4c0-1.3,1.1-2.4,2.4-2.4s2.4,1.1,2.4,2.4
	C38.4,66.7,37.3,67.8,35.9,67.8z M35.9,38.8c-1.3,0-2.4-1.1-2.4-2.4c0-1.3,1.1-2.4,2.4-2.4s2.4,1.1,2.4,2.4
	C38.4,37.7,37.3,38.8,35.9,38.8z M35.9,29.1c-1.3,0-2.4-1.1-2.4-2.4s1.1-2.4,2.4-2.4s2.4,1.1,2.4,2.4S37.3,29.1,35.9,29.1z
	 M35.9,19.5c-1.3,0-2.4-1.1-2.4-2.4s1.1-2.4,2.4-2.4s2.4,1.1,2.4,2.4S37.3,19.5,35.9,19.5z M41.1,101.6c-1.3,0-2.4-1.1-2.4-2.4
	c0-1.3,1.1-2.4,2.4-2.4c1.3,0,2.4,1.1,2.4,2.4C43.5,100.5,42.4,101.6,41.1,101.6z M45.9,106.4c-1.3,0-2.4-1.1-2.4-2.4
	c0-1.3,1.1-2.4,2.4-2.4c1.3,0,2.4,1.1,2.4,2.4C48.3,105.3,47.2,106.4,45.9,106.4z M45.9,96.8c-1.3,0-2.4-1.1-2.4-2.4
	c0-1.3,1.1-2.4,2.4-2.4c1.3,0,2.4,1.1,2.4,2.4C48.3,95.7,47.2,96.8,45.9,96.8z M45.9,87.1c-1.3,0-2.4-1.1-2.4-2.4
	c0-1.3,1.1-2.4,2.4-2.4c1.3,0,2.4,1.1,2.4,2.4C48.3,86,47.2,87.1,45.9,87.1z M45.9,77.4c-1.3,0-2.4-1.1-2.4-2.4
	c0-1.3,1.1-2.4,2.4-2.4c1.3,0,2.4,1.1,2.4,2.4C48.3,76.4,47.2,77.4,45.9,77.4z M45.9,29.1c-1.3,0-2.4-1.1-2.4-2.4s1.1-2.4,2.4-2.4
	c1.3,0,2.4,1.1,2.4,2.4S47.2,29.1,45.9,29.1z M45.9,19.5c-1.3,0-2.4-1.1-2.4-2.4s1.1-2.4,2.4-2.4c1.3,0,2.4,1.1,2.4,2.4
	S47.2,19.5,45.9,19.5z M51.3,111.2c-1.3,0-2.4-1.1-2.4-2.4c0-1.3,1.1-2.4,2.4-2.4s2.4,1.1,2.4,2.4C53.7,110.2,52.6,111.2,51.3,111.2
	z M57.2,115.8c-0.9,0-1.7-0.1-2.6-0.2c-0.6-0.4-1-1.1-1-1.9c0-1.3,1.1-2.4,2.4-2.4c1.3,0,2.4,1.1,2.4,2.4
	C58.5,114.6,58,115.4,57.2,115.8z M56.1,106.4c-1.3,0-2.4-1.1-2.4-2.4c0-1.3,1.1-2.4,2.4-2.4c1.3,0,2.4,1.1,2.4,2.4
	C58.5,105.3,57.5,106.4,56.1,106.4z M56.1,87.1c-1.3,0-2.4-1.1-2.4-2.4c0-1.3,1.1-2.4,2.4-2.4c1.3,0,2.4,1.1,2.4,2.4
	C58.5,86,57.5,87.1,56.1,87.1z M56.1,29.1c-1.3,0-2.4-1.1-2.4-2.4s1.1-2.4,2.4-2.4c1.3,0,2.4,1.1,2.4,2.4S57.5,29.1,56.1,29.1z
	 M56.1,19.5c-1.3,0-2.4-1.1-2.4-2.4s1.1-2.4,2.4-2.4c1.3,0,2.4,1.1,2.4,2.4S57.5,19.5,56.1,19.5z M61.5,111.2
	c-1.3,0-2.4-1.1-2.4-2.4c0-1.3,1.1-2.4,2.4-2.4c1.3,0,2.4,1.1,2.4,2.4C63.9,110.2,62.8,111.2,61.5,111.2z M66.3,67.8
	c-1.3,0-2.4-1.1-2.4-2.4c0-1.3,1.1-2.4,2.4-2.4c1.3,0,2.4,1.1,2.4,2.4C68.8,66.7,67.7,67.8,66.3,67.8z M66.3,58.1
	c-1.3,0-2.4-1.1-2.4-2.4s1.1-2.4,2.4-2.4c1.3,0,2.4,1.1,2.4,2.4S67.7,58.1,66.3,58.1z M66.3,29.1c-1.3,0-2.4-1.1-2.4-2.4
	s1.1-2.4,2.4-2.4c1.3,0,2.4,1.1,2.4,2.4S67.7,29.1,66.3,29.1z M66.3,19.5c-1.3,0-2.4-1.1-2.4-2.4s1.1-2.4,2.4-2.4
	c1.3,0,2.4,1.1,2.4,2.4S67.7,19.5,66.3,19.5z M71.7,72.6c-1.3,0-2.4-1.1-2.4-2.4c0-1.3,1.1-2.4,2.4-2.4c1.3,0,2.4,1.1,2.4,2.4
	C74.1,71.5,73.1,72.6,71.7,72.6z M76.6,67.8c-1.3,0-2.4-1.1-2.4-2.4c0-1.3,1.1-2.4,2.4-2.4c1.3,0,2.4,1.1,2.4,2.4
	C79,66.7,77.9,67.8,76.6,67.8z M76.6,58.1c-1.3,0-2.4-1.1-2.4-2.4s1.1-2.4,2.4-2.4c1.3,0,2.4,1.1,2.4,2.4S77.9,58.1,76.6,58.1z
	 M76.6,48.5c-1.3,0-2.4-1.1-2.4-2.4c0-1.3,1.1-2.4,2.4-2.4c1.3,0,2.4,1.1,2.4,2.4C79,47.4,77.9,48.5,76.6,48.5z M76.6,38.8
	c-1.3,0-2.4-1.1-2.4-2.4c0-1.3,1.1-2.4,2.4-2.4c1.3,0,2.4,1.1,2.4,2.4C79,37.7,77.9,38.8,76.6,38.8z M83.6,110.5
	c-0.5,0.2-1,0.5-1.5,0.7c-0.1,0-0.2,0-0.2,0c-1.3,0-2.4-1.1-2.4-2.4c0-1.3,1.1-2.4,2.4-2.4c1.3,0,2.4,1.1,2.4,2.4
	C84.4,109.5,84.1,110.1,83.6,110.5z M86.8,106.4c-1.3,0-2.4-1.1-2.4-2.4c0-1.3,1.1-2.4,2.4-2.4c1.3,0,2.4,1.1,2.4,2.4
	C89.2,105.3,88.1,106.4,86.8,106.4z M86.8,96.8c-1.3,0-2.4-1.1-2.4-2.4c0-1.3,1.1-2.4,2.4-2.4c1.3,0,2.4,1.1,2.4,2.4
	C89.2,95.7,88.1,96.8,86.8,96.8z M86.8,87.1c-1.3,0-2.4-1.1-2.4-2.4c0-1.3,1.1-2.4,2.4-2.4c1.3,0,2.4,1.1,2.4,2.4
	C89.2,86,88.1,87.1,86.8,87.1z M86.8,77.4c-1.3,0-2.4-1.1-2.4-2.4c0-1.3,1.1-2.4,2.4-2.4c1.3,0,2.4,1.1,2.4,2.4
	C89.2,76.4,88.1,77.4,86.8,77.4z M86.8,67.8c-1.3,0-2.4-1.1-2.4-2.4c0-1.3,1.1-2.4,2.4-2.4c1.3,0,2.4,1.1,2.4,2.4
	C89.2,66.7,88.1,67.8,86.8,67.8z M86.8,58.1c-1.3,0-2.4-1.1-2.4-2.4s1.1-2.4,2.4-2.4c1.3,0,2.4,1.1,2.4,2.4S88.1,58.1,86.8,58.1z
	 M86.8,48.5c-1.3,0-2.4-1.1-2.4-2.4c0-1.3,1.1-2.4,2.4-2.4c1.3,0,2.4,1.1,2.4,2.4C89.2,47.4,88.1,48.5,86.8,48.5z M86.8,38.8
	c-1.3,0-2.4-1.1-2.4-2.4c0-1.3,1.1-2.4,2.4-2.4c1.3,0,2.4,1.1,2.4,2.4C89.2,37.7,88.1,38.8,86.8,38.8z M86.8,29.1
	c-1.3,0-2.4-1.1-2.4-2.4s1.1-2.4,2.4-2.4c1.3,0,2.4,1.1,2.4,2.4S88.1,29.1,86.8,29.1z M86.8,19.5c-1.3,0-2.4-1.1-2.4-2.4
	c0-1.3,1.1-2.4,2.4-2.4c0.7,0.4,1.4,0.8,2.1,1.3c0.2,0.3,0.3,0.7,0.3,1.1C89.2,18.4,88.1,19.5,86.8,19.5z M92.2,101.6
	c-1.3,0-2.4-1.1-2.4-2.4c0-1.3,1.1-2.4,2.4-2.4c1.3,0,2.4,1.1,2.4,2.4C94.6,100.5,93.5,101.6,92.2,101.6z M97,96.8
	c-1.3,0-2.4-1.1-2.4-2.4c0-1.3,1.1-2.4,2.4-2.4c1.3,0,2.4,1.1,2.4,2.4C99.4,95.7,98.3,96.8,97,96.8z M97,87.1
	c-1.3,0-2.4-1.1-2.4-2.4c0-1.3,1.1-2.4,2.4-2.4c1.3,0,2.4,1.1,2.4,2.4C99.4,86,98.3,87.1,97,87.1z M97,77.4c-1.3,0-2.4-1.1-2.4-2.4
	c0-1.3,1.1-2.4,2.4-2.4c1.3,0,2.4,1.1,2.4,2.4C99.4,76.4,98.3,77.4,97,77.4z M97,67.8c-1.3,0-2.4-1.1-2.4-2.4c0-1.3,1.1-2.4,2.4-2.4
	c1.3,0,2.4,1.1,2.4,2.4C99.4,66.7,98.3,67.8,97,67.8z M97,58.1c-1.3,0-2.4-1.1-2.4-2.4s1.1-2.4,2.4-2.4c1.3,0,2.4,1.1,2.4,2.4
	S98.3,58.1,97,58.1z M97,48.5c-1.3,0-2.4-1.1-2.4-2.4c0-1.3,1.1-2.4,2.4-2.4c1.3,0,2.4,1.1,2.4,2.4C99.4,47.4,98.3,48.5,97,48.5z
	 M97,38.8c-1.3,0-2.4-1.1-2.4-2.4c0-1.3,1.1-2.4,2.4-2.4c1.3,0,2.4,1.1,2.4,2.4C99.4,37.7,98.3,38.8,97,38.8z M97,29.1
	c-1.3,0-2.4-1.1-2.4-2.4s1.1-2.4,2.4-2.4c1.3,0,2.4,1.1,2.4,2.4S98.3,29.1,97,29.1z M102.4,91.9c-1.3,0-2.4-1.1-2.4-2.4
	c0-1.3,1.1-2.4,2.4-2.4s2.4,1.1,2.4,2.4C104.8,90.8,103.7,91.9,102.4,91.9z M108.1,86.9c-0.3,0.1-0.6,0.2-0.9,0.2
	c-1.3,0-2.4-1.1-2.4-2.4c0-1.3,1.1-2.4,2.4-2.4c1.1,0,2,0.8,2.3,1.8C109.1,85,108.6,86,108.1,86.9z M107.2,77.4
	c-1.3,0-2.4-1.1-2.4-2.4c0-1.3,1.1-2.4,2.4-2.4s2.4,1.1,2.4,2.4C109.6,76.4,108.5,77.4,107.2,77.4z M107.2,67.8
	c-1.3,0-2.4-1.1-2.4-2.4c0-1.3,1.1-2.4,2.4-2.4s2.4,1.1,2.4,2.4C109.6,66.7,108.5,67.8,107.2,67.8z M107.2,58.1
	c-1.3,0-2.4-1.1-2.4-2.4s1.1-2.4,2.4-2.4s2.4,1.1,2.4,2.4S108.5,58.1,107.2,58.1z M107.2,48.5c-1.3,0-2.4-1.1-2.4-2.4
	c0-1.3,1.1-2.4,2.4-2.4s2.4,1.1,2.4,2.4C109.6,47.4,108.5,48.5,107.2,48.5z M110.7,81.3c-0.3-0.4-0.5-0.9-0.5-1.4
	c0-1.1,0.8-2.1,1.8-2.3C111.6,78.8,111.1,80.1,110.7,81.3z M113.2,72.5c-0.2,0.1-0.4,0.1-0.6,0.1c-1.3,0-2.4-1.1-2.4-2.4
	c0-1.3,1.1-2.4,2.4-2.4c0.5,0,0.9,0.1,1.3,0.4C113.7,69.6,113.5,71.1,113.2,72.5z"/>
</svg>
