<svg xmlns="http://www.w3.org/2000/svg" width="137.66" height="99.349" viewBox="0 0 137.66 99.349">
  <g id="Grupo_17" data-name="Grupo 17" transform="translate(-2599.089 -516.469)">
    <g id="Grupo_11" data-name="Grupo 11">
      <g id="Grupo_10" data-name="Grupo 10">
        <path id="Trazado_12" data-name="Trazado 12" d="M2736.749,516.469v64.349a5,5,0,0,1-5,5h0a5,5,0,0,1-5-5V526.469h-92.66a5,5,0,0,1-5-5h0a5,5,0,0,1,5-5Z" fill="#005f5e"/>
      </g>
    </g>
    <g id="Grupo_13" data-name="Grupo 13">
      <g id="Grupo_12" data-name="Grupo 12">
        <path id="Trazado_13" data-name="Trazado 13" d="M2721.749,531.469v64.349a5,5,0,0,1-5,5h0a5,5,0,0,1-5-5V541.469h-92.66a5,5,0,0,1-5-5h0a5,5,0,0,1,5-5Z" fill="#005f5e"/>
      </g>
    </g>
    <g id="Grupo_15" data-name="Grupo 15">
      <g id="Grupo_14" data-name="Grupo 14">
        <path id="Trazado_14" data-name="Trazado 14" d="M2609.089,600.818h97.66V546.469h-107.66v69.349h102.66a5,5,0,0,0,5-5h0a5,5,0,0,0-5-5h-5v.11h-87.66Zm20-44.43h67.66v4.97h-67.66Zm0,14.861h67.66v4.97h-67.66Zm67.66,14.859v4.96h-87.66v-4.96Z" fill="#005f5e"/>
        <rect id="Rect치ngulo_1" data-name="Rect치ngulo 1" width="87.66" height="0.11" transform="translate(2609.089 605.818)" fill="#005f5e"/>
      </g>
    </g>
    <g id="Grupo_16" data-name="Grupo 16">
      <rect id="Rect치ngulo_2" data-name="Rect치ngulo 2" width="87.66" height="0.11" transform="translate(2609.089 605.818)" fill="#005f5e"/>
    </g>
  </g>
</svg>
