<svg id="Componente_4_1" data-name="Componente 4 – 1" xmlns="http://www.w3.org/2000/svg" width="352.831" height="67.809" viewBox="0 0 352.831 67.809">
  <g id="Grupo_1401" data-name="Grupo 1401" transform="translate(849.18 -690.17)">
    <path id="Trazado_884" data-name="Trazado 884" d="M-756.74,706.183a15.954,15.954,0,0,1-3.5,10,12.118,12.118,0,0,1-1.01,1.151l-.444.454-15.518,15.508a2.157,2.157,0,0,1-3.059,0l-16.8-16.77-10.389,10.44a1.085,1.085,0,0,1-1.535,0l-1.949-1.949a1.091,1.091,0,0,1,0-1.525l25.988-27.674.081-.081a15.933,15.933,0,0,1,12.126-5.563A16.012,16.012,0,0,1-756.74,706.183Z" transform="translate(0.365 0)" fill="#fff"/>
    <path id="Trazado_885" data-name="Trazado 885" d="M-781.959,737.885l-1.939,1.938a1.081,1.081,0,0,1-1.524.01l-10.944-10.924-2.3,2.383,10.874,10.884a1.073,1.073,0,0,1,0,1.525l-1.969,1.959a1.073,1.073,0,0,1-1.525,0l-10.874-10.894-2.342,2.352,10.884,10.853a1.085,1.085,0,0,1,0,1.535l-1.969,1.979a1.085,1.085,0,0,1-1.535,0L-807.987,740.6l-2.373,2.332,11.681,11.681-2.746,2.736a2.166,2.166,0,0,1-3.059-.01l-34.378-34.378c-.384-.374-5.916-5.412-6.6-6.512-.01-.01-.01-.02-.02-.03a15.984,15.984,0,0,1-3.7-10.238,16.012,16.012,0,0,1,16.013-16.013,15.955,15.955,0,0,1,11.863,5.25l.071.081,16.73,16.719-11.247,11.217a1.079,1.079,0,0,0,0,1.514l6.694,6.664a1.066,1.066,0,0,0,1.5,0l10.4-10.429,15.195,15.165A1.094,1.094,0,0,1-781.959,737.885Z" transform="translate(0 0)" fill="#fff"/>
    <path id="Trazado_886" data-name="Trazado 886" d="M-760.64,715.991l-1.09,1.09a12.117,12.117,0,0,0,1.01-1.151Z" transform="translate(0.842 0.248)" fill="#fff"/>
  </g>
  <g id="Grupo_1404" data-name="Grupo 1404" transform="translate(-1200.464 -551.195)">
    <path id="Trazado_928" data-name="Trazado 928" d="M1320.843,589.314a3.559,3.559,0,0,1-.992,1.2,4.341,4.341,0,0,1-1.461.725,6.309,6.309,0,0,1-1.77.242h-2.838v4.125h-1.318V583.922h4.373a5.846,5.846,0,0,1,1.794.258,4.1,4.1,0,0,1,1.387.734,3.192,3.192,0,0,1,.885,1.169,3.8,3.8,0,0,1,.309,1.561,3.593,3.593,0,0,1-.369,1.67m-1.813-3.532a3.741,3.741,0,0,0-2.285-.642h-2.963v5.142h2.894a4.413,4.413,0,0,0,1.315-.184,3.091,3.091,0,0,0,1.021-.525,2.287,2.287,0,0,0,.653-.818,2.436,2.436,0,0,0,.228-1.06,2.239,2.239,0,0,0-.863-1.913" fill="#fff"/>
    <path id="Trazado_929" data-name="Trazado 929" d="M1331.02,593.029a4.5,4.5,0,0,1-.943,1.443,4.387,4.387,0,0,1-1.437.977,4.5,4.5,0,0,1-1.8.359,4.39,4.39,0,0,1-1.786-.359,4.505,4.505,0,0,1-1.42-.968,4.331,4.331,0,0,1-.933-1.427,4.541,4.541,0,0,1-.335-1.736,4.6,4.6,0,0,1,.335-1.745,4.375,4.375,0,0,1,2.362-2.422,4.707,4.707,0,0,1,3.606,0,4.545,4.545,0,0,1,1.427.969,4.4,4.4,0,0,1,.936,1.428,4.657,4.657,0,0,1-.009,3.481m-1.219-3.036a3.293,3.293,0,0,0-.677-1.073,3.258,3.258,0,0,0-1.016-.726,3.038,3.038,0,0,0-1.271-.266,3.121,3.121,0,0,0-1.284.259,2.881,2.881,0,0,0-.995.715,3.465,3.465,0,0,0-.642,1.067,3.622,3.622,0,0,0-.234,1.306,3.56,3.56,0,0,0,.243,1.317,3.254,3.254,0,0,0,.668,1.066,3.186,3.186,0,0,0,1.011.715,3,3,0,0,0,1.268.267,3.132,3.132,0,0,0,1.283-.258,3,3,0,0,0,1-.708,3.233,3.233,0,0,0,.651-1.058,3.608,3.608,0,0,0,.232-1.307,3.557,3.557,0,0,0-.241-1.316" fill="#fff"/>
    <path id="Trazado_930" data-name="Trazado 930" d="M1341.481,593.9l2.27-6.929h1.336l-3.039,8.7h-1.12l-2.32-6.812-2.337,6.812h-1.136l-3.021-8.7h1.37l2.269,6.929,2.321-6.962h1.069Z" fill="#fff"/>
    <path id="Trazado_931" data-name="Trazado 931" d="M1347.507,593.012a2.966,2.966,0,0,0,.685.918,2.863,2.863,0,0,0,.934.568,3.1,3.1,0,0,0,1.087.193,3.287,3.287,0,0,0,1.542-.336,4.548,4.548,0,0,0,1.178-.884l.8.718a5.225,5.225,0,0,1-1.485,1.176,4.372,4.372,0,0,1-2.07.443,4.314,4.314,0,0,1-1.67-.325,4.13,4.13,0,0,1-1.371-.918,4.363,4.363,0,0,1-.936-1.428,4.724,4.724,0,0,1-.347-1.836,4.973,4.973,0,0,1,.309-1.761,4.418,4.418,0,0,1,.859-1.437,4.027,4.027,0,0,1,1.311-.96,4.164,4.164,0,0,1,3.365.008,3.766,3.766,0,0,1,1.269.978,4.277,4.277,0,0,1,.784,1.452,5.868,5.868,0,0,1,.267,1.786v.184a1.717,1.717,0,0,1-.017.217h-6.827a3.556,3.556,0,0,0,.333,1.244m5.192-2.2a4.445,4.445,0,0,0-.241-1.12,3.01,3.01,0,0,0-.53-.934,2.576,2.576,0,0,0-.831-.643,2.536,2.536,0,0,0-1.136-.241,2.433,2.433,0,0,0-1.046.224,2.723,2.723,0,0,0-.846.618,3.293,3.293,0,0,0-.6.927,3.934,3.934,0,0,0-.3,1.169Z" fill="#fff"/>
    <path id="Trazado_932" data-name="Trazado 932" d="M1357.141,595.608h-1.286v-8.632h1.286v2.254a4.582,4.582,0,0,1,.585-.986,3.867,3.867,0,0,1,.8-.776,3.419,3.419,0,0,1,.985-.492,3.56,3.56,0,0,1,1.152-.151v1.386h-.1a3.562,3.562,0,0,0-1.327.25,3.032,3.032,0,0,0-1.094.751,3.557,3.557,0,0,0-.734,1.245,5,5,0,0,0-.267,1.711Z" fill="#fff"/>
    <path id="Trazado_933" data-name="Trazado 933" d="M1362.952,593.012a2.963,2.963,0,0,0,.684.918,2.873,2.873,0,0,0,.934.568,3.1,3.1,0,0,0,1.087.193,3.287,3.287,0,0,0,1.542-.336,4.513,4.513,0,0,0,1.178-.884l.8.718a5.206,5.206,0,0,1-1.484,1.176,4.379,4.379,0,0,1-2.071.443,4.305,4.305,0,0,1-1.669-.325,4.12,4.12,0,0,1-1.371-.918,4.346,4.346,0,0,1-.936-1.428,4.707,4.707,0,0,1-.348-1.836,4.971,4.971,0,0,1,.31-1.761,4.4,4.4,0,0,1,.859-1.437,4.021,4.021,0,0,1,1.31-.96,4.164,4.164,0,0,1,3.365.008,3.766,3.766,0,0,1,1.269.978,4.26,4.26,0,0,1,.784,1.452,5.868,5.868,0,0,1,.268,1.786v.184a1.728,1.728,0,0,1-.018.217h-6.826a3.51,3.51,0,0,0,.333,1.244m5.192-2.2a4.446,4.446,0,0,0-.242-1.12,2.969,2.969,0,0,0-.53-.934,2.477,2.477,0,0,0-1.966-.884,2.434,2.434,0,0,0-1.047.224,2.705,2.705,0,0,0-.845.618,3.29,3.29,0,0,0-.6.927,3.868,3.868,0,0,0-.3,1.169Z" fill="#fff"/>
    <path id="Trazado_934" data-name="Trazado 934" d="M1378.226,595.609v-1.738a6.654,6.654,0,0,1-.591.735,4.144,4.144,0,0,1-.728.618,3.331,3.331,0,0,1-.891.417,3.709,3.709,0,0,1-1.094.151,3.973,3.973,0,0,1-1.52-.3,4.059,4.059,0,0,1-1.319-.877,4.27,4.27,0,0,1-.936-1.41,5.352,5.352,0,0,1,0-3.807,4.285,4.285,0,0,1,.936-1.411,4.215,4.215,0,0,1,1.319-.885,3.908,3.908,0,0,1,1.52-.309,3.81,3.81,0,0,1,1.1.151,3.665,3.665,0,0,1,.9.4,3.887,3.887,0,0,1,.728.584,5.04,5.04,0,0,1,.574.7V583.42h1.286v12.189Zm-.207-5.687a3.144,3.144,0,0,0-.7-1.046,3.316,3.316,0,0,0-1-.673,2.907,2.907,0,0,0-1.161-.241,3.138,3.138,0,0,0-1.187.223,2.815,2.815,0,0,0-.959.649,3.135,3.135,0,0,0-.651,1.046,3.858,3.858,0,0,0-.243,1.4,3.745,3.745,0,0,0,.243,1.38,3.25,3.25,0,0,0,.66,1.055,2.845,2.845,0,0,0,.969.672,2.952,2.952,0,0,0,1.168.233,2.89,2.89,0,0,0,1.161-.242,3.276,3.276,0,0,0,1-.672,3.139,3.139,0,0,0,.7-1.054,3.534,3.534,0,0,0,.258-1.372,3.468,3.468,0,0,0-.258-1.361" fill="#fff"/>
    <path id="Trazado_935" data-name="Trazado 935" d="M1393.307,584.13a3.749,3.749,0,0,1,1.2.585,2.522,2.522,0,0,1,.765.918,2.67,2.67,0,0,1,.268,1.209,2.957,2.957,0,0,1-.159,1.019,2.682,2.682,0,0,1-.424.768,2.864,2.864,0,0,1-.592.56,3.769,3.769,0,0,1-.675.374,5.322,5.322,0,0,1,.976.392,3.329,3.329,0,0,1,.793.577,2.575,2.575,0,0,1,.532.8,2.682,2.682,0,0,1,.2,1.069,2.979,2.979,0,0,1-.3,1.352,2.75,2.75,0,0,1-.856,1.009,4.083,4.083,0,0,1-1.344.627,6.46,6.46,0,0,1-1.732.217h-5.182V583.921h4.965a5.441,5.441,0,0,1,1.566.209m.164,4.463a1.815,1.815,0,0,0,.749-1.576,1.688,1.688,0,0,0-.666-1.408,3.05,3.05,0,0,0-1.915-.52h-3.545v4.04h3.447a3.236,3.236,0,0,0,1.93-.536m.636,5.293a1.812,1.812,0,0,0,.765-1.56,1.7,1.7,0,0,0-.783-1.5,4.163,4.163,0,0,0-2.316-.528h-3.679v4.14h3.913a3.535,3.535,0,0,0,2.1-.552" fill="#fff"/>
    <path id="Trazado_936" data-name="Trazado 936" d="M1402.235,595.891a4.7,4.7,0,0,1-1.227,1.886,2.517,2.517,0,0,1-1.645.552,4.015,4.015,0,0,1-.969-.109,4.244,4.244,0,0,1-.867-.324l.434-1.019a2.69,2.69,0,0,0,.627.241,3.076,3.076,0,0,0,.724.077,1.451,1.451,0,0,0,.986-.351,3.5,3.5,0,0,0,.785-1.27l-3.924-8.6h1.42l3.139,7.2,2.772-7.2h1.367Z" fill="#fff"/>
    <path id="Trazado_937" data-name="Trazado 937" d="M1419.131,595.609l-2.505-3.74h-2.019v3.74h-2.572V583.922h5.343a4.764,4.764,0,0,1,3.247,1.018,3.575,3.575,0,0,1,1.16,2.838v.033a3.659,3.659,0,0,1-.693,2.312,4.005,4.005,0,0,1-1.812,1.312l2.855,4.174Zm.05-7.7a1.5,1.5,0,0,0-.534-1.252,2.361,2.361,0,0,0-1.486-.418h-2.554V589.6h2.6a2.127,2.127,0,0,0,1.459-.451,1.526,1.526,0,0,0,.511-1.2Z" fill="#fff"/>
    <path id="Trazado_938" data-name="Trazado 938" d="M1431.761,591.7c-.006.088-.015.194-.026.317h-6.227a2.129,2.129,0,0,0,.76,1.31,2.274,2.274,0,0,0,1.427.443,2.82,2.82,0,0,0,1.135-.217,3.88,3.88,0,0,0,1.036-.7l1.453,1.285a4.481,4.481,0,0,1-1.536,1.227,4.754,4.754,0,0,1-2.121.442,5.115,5.115,0,0,1-1.862-.333,4.344,4.344,0,0,1-1.486-.951,4.442,4.442,0,0,1-.977-1.461,4.864,4.864,0,0,1-.351-1.879v-.033a5,5,0,0,1,.327-1.8,4.572,4.572,0,0,1,.909-1.486,4.25,4.25,0,0,1,3.19-1.369,4.366,4.366,0,0,1,1.937.4,3.991,3.991,0,0,1,1.361,1.077,4.449,4.449,0,0,1,.8,1.553,6.413,6.413,0,0,1,.259,1.829v.033c0,.123,0,.228-.007.317m-3.065-2.646a1.66,1.66,0,0,0-1.284-.526,1.712,1.712,0,0,0-1.3.517,2.59,2.59,0,0,0-.642,1.386h3.824a2.481,2.481,0,0,0-.6-1.377" fill="#fff"/>
    <path id="Trazado_939" data-name="Trazado 939" d="M1442.3,593.129a4.53,4.53,0,0,1-.9,1.452,3.716,3.716,0,0,1-1.293.894,4.033,4.033,0,0,1-1.536.3,3.215,3.215,0,0,1-1.679-.4,4.478,4.478,0,0,1-1.11-.928v3.83h-2.537V586.659h2.537v1.274a4.007,4.007,0,0,1,1.129-1.035,3.112,3.112,0,0,1,1.66-.406,4,4,0,0,1,1.518.3,3.763,3.763,0,0,1,1.3.894,4.464,4.464,0,0,1,.91,1.452,5.336,5.336,0,0,1,.342,1.979v.033a5.329,5.329,0,0,1-.342,1.979m-2.2-2.012a2.891,2.891,0,0,0-.175-1.017,2.511,2.511,0,0,0-.475-.791,2.159,2.159,0,0,0-.7-.5,2.046,2.046,0,0,0-2.37.5,2.553,2.553,0,0,0-.468.791,2.891,2.891,0,0,0-.173,1.017v.033a2.893,2.893,0,0,0,.173,1.018,2.548,2.548,0,0,0,.468.79,1.976,1.976,0,0,0,.686.5,2.1,2.1,0,0,0,1.684,0,2.1,2.1,0,0,0,.7-.5,2.524,2.524,0,0,0,.475-.782,2.874,2.874,0,0,0,.175-1.026Z" fill="#fff"/>
    <path id="Trazado_940" data-name="Trazado 940" d="M1449.333,595.608v-.968a3.549,3.549,0,0,1-1.119.826,3.677,3.677,0,0,1-1.586.309,3.994,3.994,0,0,1-1.194-.175,2.8,2.8,0,0,1-.975-.526,2.527,2.527,0,0,1-.66-.86,2.707,2.707,0,0,1-.243-1.178V593a2.82,2.82,0,0,1,.267-1.268,2.416,2.416,0,0,1,.743-.885,3.318,3.318,0,0,1,1.135-.526,5.731,5.731,0,0,1,1.461-.176,6.171,6.171,0,0,1,1.2.1,7.213,7.213,0,0,1,.992.268v-.152a1.513,1.513,0,0,0-.485-1.218,2.142,2.142,0,0,0-1.434-.418,5.94,5.94,0,0,0-1.3.126,8.623,8.623,0,0,0-1.177.358l-.633-1.937a10.012,10.012,0,0,1,1.536-.517,8.109,8.109,0,0,1,1.937-.2,3.477,3.477,0,0,1,3.989,3.856v5.192Zm.049-3.606a3.766,3.766,0,0,0-.743-.243,4.075,4.075,0,0,0-.876-.091,2.268,2.268,0,0,0-1.284.316,1.039,1.039,0,0,0-.469.918v.035a.937.937,0,0,0,.384.8,1.636,1.636,0,0,0,1,.285,2.249,2.249,0,0,0,1.444-.434,1.385,1.385,0,0,0,.541-1.136Z" fill="#fff"/>
    <path id="Trazado_941" data-name="Trazado 941" d="M1453.6,583.42h2.671v2.254H1453.6Zm.069,3.239h2.537v8.949h-2.537Z" fill="#fff"/>
    <path id="Trazado_942" data-name="Trazado 942" d="M1463.439,589.147a2.614,2.614,0,0,0-1.994.767,3.375,3.375,0,0,0-.728,2.388v3.306h-2.537v-8.949h2.537v1.8a3.745,3.745,0,0,1,1.052-1.468,2.567,2.567,0,0,1,1.8-.5v2.655Z" fill="#fff"/>
    <path id="Trazado_943" data-name="Trazado 943" d="M1474.892,586.292v9.316h-2.57v-9.316h-3.556v-2.371h9.682v2.371Z" fill="#fff"/>
    <path id="Trazado_944" data-name="Trazado 944" d="M1485.4,595.608v-4.98a2.01,2.01,0,0,0-.4-1.357,1.433,1.433,0,0,0-1.136-.458,1.506,1.506,0,0,0-1.161.458,1.919,1.919,0,0,0-.425,1.357v4.98h-2.54V583.42h2.54v4.517a5.272,5.272,0,0,1,.475-.545,3.209,3.209,0,0,1,.577-.463,2.907,2.907,0,0,1,.7-.32,2.982,2.982,0,0,1,.868-.118,2.859,2.859,0,0,1,2.246.886,3.52,3.52,0,0,1,.793,2.437v5.794Z" fill="#fff"/>
    <path id="Trazado_945" data-name="Trazado 945" d="M1498.057,591.7c0,.088-.013.194-.024.317H1491.8a2.138,2.138,0,0,0,.76,1.31,2.276,2.276,0,0,0,1.429.443,2.831,2.831,0,0,0,1.135-.217,3.875,3.875,0,0,0,1.034-.7l1.452,1.285a4.473,4.473,0,0,1-1.536,1.227,4.744,4.744,0,0,1-2.12.442,5.1,5.1,0,0,1-1.86-.333,4.294,4.294,0,0,1-1.486-.951,4.364,4.364,0,0,1-.977-1.461,4.829,4.829,0,0,1-.351-1.879v-.033a5,5,0,0,1,.324-1.8,4.591,4.591,0,0,1,.911-1.486,4.25,4.25,0,0,1,3.189-1.369,4.359,4.359,0,0,1,1.936.4,3.945,3.945,0,0,1,1.361,1.077,4.49,4.49,0,0,1,.8,1.553,6.413,6.413,0,0,1,.258,1.829v.033c0,.123,0,.228-.008.317m-3.063-2.646a1.666,1.666,0,0,0-1.286-.526,1.7,1.7,0,0,0-1.293.517,2.606,2.606,0,0,0-.644,1.386h3.824a2.479,2.479,0,0,0-.6-1.377" fill="#fff"/>
    <path id="Trazado_946" data-name="Trazado 946" d="M1517.232,595.692H1515l-2.639-7.647-2.638,7.647h-2.237l-3.991-11.771h2.756l2.421,7.914,2.62-7.947h2.2l2.621,7.947,2.421-7.914h2.688Z" fill="#fff"/>
    <path id="Trazado_947" data-name="Trazado 947" d="M1531.323,592.962a4.619,4.619,0,0,1-1.018,1.477,4.851,4.851,0,0,1-1.536,1,5.3,5.3,0,0,1-3.857.007,4.694,4.694,0,0,1-1.529-.983,4.639,4.639,0,0,1-1.01-1.47,4.512,4.512,0,0,1-.367-1.811v-.034a4.513,4.513,0,0,1,.367-1.811,4.653,4.653,0,0,1,1.018-1.478,4.848,4.848,0,0,1,1.536-1,5,5,0,0,1,1.938-.368,5.078,5.078,0,0,1,1.921.359,4.7,4.7,0,0,1,1.527.985,4.63,4.63,0,0,1,1.01,1.469,4.507,4.507,0,0,1,.366,1.812v.033a4.5,4.5,0,0,1-.366,1.812m-2.138-1.812a2.645,2.645,0,0,0-.166-.942,2.419,2.419,0,0,0-.484-.786,2.377,2.377,0,0,0-.753-.542,2.229,2.229,0,0,0-.951-.2,2.376,2.376,0,0,0-.977.192,2.153,2.153,0,0,0-.725.526,2.33,2.33,0,0,0-.461.777,2.786,2.786,0,0,0-.157.943v.033a2.686,2.686,0,0,0,.166.944,2.394,2.394,0,0,0,1.228,1.327,2.24,2.24,0,0,0,.96.2,2.325,2.325,0,0,0,.977-.193,2.115,2.115,0,0,0,.725-.526,2.264,2.264,0,0,0,.46-.775,2.815,2.815,0,0,0,.158-.943Z" fill="#fff"/>
    <path id="Trazado_948" data-name="Trazado 948" d="M1538.369,589.147a2.618,2.618,0,0,0-2,.767,3.379,3.379,0,0,0-.725,2.388v3.306h-2.54v-8.949h2.54v1.8a3.689,3.689,0,0,1,1.052-1.468,2.56,2.56,0,0,1,1.8-.5v2.655Z" fill="#fff"/>
    <rect id="Rectángulo_214" data-name="Rectángulo 214" width="2.539" height="12.188" transform="translate(1539.787 583.42)" fill="#fff"/>
    <path id="Trazado_949" data-name="Trazado 949" d="M1550.755,595.609v-1.276a4,4,0,0,1-1.126,1.037,3.135,3.135,0,0,1-1.661.405,3.992,3.992,0,0,1-1.521-.3,3.8,3.8,0,0,1-1.3-.894,4.422,4.422,0,0,1-.909-1.452,5.329,5.329,0,0,1-.342-1.979v-.033a5.336,5.336,0,0,1,.342-1.979,4.531,4.531,0,0,1,.9-1.452,3.68,3.68,0,0,1,1.3-.894,4.033,4.033,0,0,1,1.535-.3,3.209,3.209,0,0,1,1.678.4,4.453,4.453,0,0,1,1.109.927v-4.4h2.54v12.189Zm.035-4.492a2.869,2.869,0,0,0-.175-1.017,2.559,2.559,0,0,0-.47-.791,2.071,2.071,0,0,0-2.37-.5,2.143,2.143,0,0,0-.692.5,2.492,2.492,0,0,0-.476.783,2.8,2.8,0,0,0-.174,1.025v.033a2.825,2.825,0,0,0,.174,1.018,2.472,2.472,0,0,0,.476.79,2.086,2.086,0,0,0,.692.5,2.109,2.109,0,0,0,1.687,0,1.994,1.994,0,0,0,.683-.5,2.555,2.555,0,0,0,.47-.79,2.871,2.871,0,0,0,.175-1.018Z" fill="#fff"/>
  </g>
</svg>
