<?xml version="1.0" encoding="utf-8"?>
<!-- Generator: Adobe Illustrator 24.1.3, SVG Export Plug-In . SVG Version: 6.00 Build 0)  -->
<svg version="1.1" id="Capa_1" xmlns="http://www.w3.org/2000/svg" xmlns:xlink="http://www.w3.org/1999/xlink" x="0px" y="0px"
	 viewBox="0 0 1593 872" style="enable-background:new 0 0 1593 872;" xml:space="preserve">
<style type="text/css">
	.st0{fill:#FFFFFF;}
	.st1{fill:#00a99e;}
</style>
<g>
	<g>
		<path class="st0" d="M102.9,246.8c-30.2,0-64-10.1-92.6-32.6l26.2-40.3c23.4,16.9,47.9,25.8,68.1,25.8c17.7,0,25.8-6.4,25.8-16.1
			v-0.8c0-13.3-20.9-17.7-44.7-25c-30.2-8.9-64.4-23-64.4-64.8v-0.8c0-43.9,35.4-68.5,78.9-68.5c27.4,0,57.2,9.3,80.6,25l-23.4,42.3
			c-21.3-12.5-42.7-20.1-58.4-20.1c-14.9,0-22.6,6.4-22.6,14.9v0.8c0,12.1,20.5,17.7,43.9,25.8c30.2,10.1,65.2,24.6,65.2,64v0.8
			C185.4,225,149.6,246.8,102.9,246.8z"/>
		<path class="st0" d="M408,156.1H257.7c6,27.8,25.4,42.3,52.8,42.3c20.5,0,35.4-6.4,52.4-22.1l35,31c-20.1,25-49.1,40.3-88.2,40.3
			c-64.8,0-112.8-45.5-112.8-111.6v-0.8c0-61.6,43.9-112.4,106.7-112.4c72.1,0,105.1,56,105.1,117.2v0.8
			C408.8,146.9,408.4,150.5,408,156.1z M303.7,72c-25.4,0-41.9,18.1-46.7,45.9h92.2C345.5,90.5,329.4,72,303.7,72z"/>
		<path class="st0" d="M559.2,86.9c-40.7,0-65.7,24.6-65.7,76.1v79.8h-61.2V26.9h61.2v43.5c12.5-29.8,32.6-49.1,68.9-47.5v64H559.2z
			"/>
		<path class="st0" d="M1099.9,156.1H949.7c6,27.8,25.4,42.3,52.8,42.3c20.5,0,35.4-6.4,52.4-22.1l35,31
			c-20.1,25-49.1,40.3-88.2,40.3c-64.8,0-112.8-45.5-112.8-111.6v-0.8c0-61.6,43.9-112.4,106.7-112.4c72.1,0,105.1,56,105.1,117.2
			v0.8C1100.7,146.9,1100.3,150.5,1099.9,156.1z M995.6,72c-25.4,0-41.9,18.1-46.7,45.9h92.2C1037.5,90.5,1021.4,72,995.6,72z"/>
		<path class="st0" d="M100.1,561.4c-37.5,0-62.8-14.9-62.8-64.8V394.3H11.4v-52.4h25.8v-55.2h61.2v55.2h50.7v52.4H98.4v92.2
			c0,14.1,6,20.9,19.7,20.9c11.3,0,21.3-2.8,30.2-7.7V549C135.5,556.6,120.6,561.4,100.1,561.4z"/>
		<path class="st0" d="M308.9,557.8V437.4c0-29-13.7-43.9-37.1-43.9s-38.3,14.9-38.3,43.9v120.4h-61.2V286.8h61.2v85.8
			c14.1-18.1,32.2-34.6,63.2-34.6c46.3,0,73.3,30.6,73.3,80.2v139.8H308.9z"/>
		<path class="st0" d="M601.9,471.2H451.7c6,27.8,25.4,42.3,52.8,42.3c20.5,0,35.4-6.4,52.4-22.1l35,31
			c-20.1,25-49.1,40.3-88.2,40.3c-64.8,0-112.8-45.5-112.8-111.6v-0.8c0-61.6,43.9-112.4,106.7-112.4c72.1,0,105.1,56,105.1,117.2
			v0.8C602.7,462,602.3,465.6,601.9,471.2z M497.6,387c-25.4,0-41.9,18.1-46.7,45.9h92.2C539.5,405.6,523.4,387,497.6,387z"/>
		<path class="st0" d="M295.4,843.2V722.7c0-29-12.9-43.9-35.8-43.9c-23,0-37.1,14.9-37.1,43.9v120.4h-61.2V722.7
			c0-29-12.9-43.9-35.8-43.9s-37.1,14.9-37.1,43.9v120.4H27.2V627.3h61.2v30.6c14.1-18.1,32.6-34.6,63.6-34.6
			c28.2,0,49.5,12.5,60.8,34.2c18.9-22.2,41.5-34.2,70.9-34.2c45.5,0,72.9,27.4,72.9,79.3v140.6H295.4z"/>
		<path class="st0" d="M493.8,848c-66.9,0-116.4-49.5-116.4-111.6v-0.8c0-62,49.9-112.4,117.2-112.4c66.9,0,116.4,49.5,116.4,111.6
			v0.8C611,797.7,561,848,493.8,848z M550.6,735.6c0-31.8-23-59.6-56.8-59.6c-35,0-56,27-56,58.8v0.8c0,31.8,23,59.6,56.8,59.6
			c35,0,56-27,56-58.8V735.6z"/>
		<path class="st0" d="M901.6,843.2V722.7c0-29-12.9-43.9-35.8-43.9s-37.1,14.9-37.1,43.9v120.4h-61.2V722.7
			c0-29-12.9-43.9-35.8-43.9s-37.1,14.9-37.1,43.9v120.4h-61.2V627.3h61.2v30.6c14.1-18.1,32.6-34.6,63.6-34.6
			c28.2,0,49.5,12.5,60.8,34.2c18.9-22.2,41.5-34.2,70.9-34.2c45.5,0,72.9,27.4,72.9,79.3v140.6H901.6z"/>
		<path class="st0" d="M1194.6,756.6h-150.2c6,27.8,25.4,42.3,52.8,42.3c20.5,0,35.4-6.4,52.4-22.1l35,31
			c-20.1,25-49.1,40.3-88.2,40.3c-64.8,0-112.8-45.5-112.8-111.6v-0.8c0-61.6,43.9-112.4,106.7-112.4c72.1,0,105.1,56,105.1,117.2
			v0.8C1195.4,747.3,1195,750.9,1194.6,756.6z M1090.3,672.4c-25.4,0-41.9,18.1-46.7,45.9h92.2
			C1132.2,690.9,1116.1,672.4,1090.3,672.4z"/>
		<path class="st0" d="M1355.5,843.2V722.7c0-29-13.7-43.9-37.1-43.9c-23.4,0-38.3,14.9-38.3,43.9v120.4H1219V627.3h61.2v30.6
			c14.1-18.1,32.2-34.6,63.2-34.6c46.3,0,73.3,30.6,73.3,80.2v139.8H1355.5z"/>
		<path class="st0" d="M1520.9,846.8c-37.5,0-62.8-14.9-62.8-64.8V679.6h-25.8v-52.4h25.8v-55.2h61.2v55.2h50.7v52.4h-50.7v92.2
			c0,14.1,6,20.9,19.7,20.9c11.3,0,21.3-2.8,30.2-7.7v49.1C1556.3,842,1541.4,846.8,1520.9,846.8z"/>
		<g>
			<circle class="st0" cx="633.8" cy="77.6" r="51"/>
			<circle class="st0" cx="827.3" cy="77.6" r="51"/>
			<g>
				<g>
					<g>
						<path class="st0" d="M665,38.3l-49.3,49.4l0,0l-21.3,22.1c0,1.8,20,20,21.3,21.3l109.5,109.5c2.7,2.7,7,2.7,9.7,0l8.7-8.7
							l-37.2-37.2l7.6-7.5l34.6,34.7c1.3,1.3,3.5,1.3,4.9,0l6.3-6.3c1.3-1.3,1.3-3.5,0-4.9L725,176.1l7.5-7.5l34.6,34.7
							c1.3,1.3,3.5,1.3,4.9,0l6.3-6.2c1.4-1.3,1.4-3.5,0-4.9l-34.6-34.6l7.3-7.6l34.8,34.8c1.3,1.3,3.5,1.3,4.9,0l6.2-6.2
							c1.3-1.3,1.3-3.5,0-4.9l-48.4-48.3l-33.1,33.2c-1.3,1.3-3.5,1.3-4.8,0l-21.3-21.2c-1.3-1.3-1.3-3.5,0-4.8L725,96.8L668.2,40"
							/>
						<path class="st0" d="M847.8,92.7c0-1.8-0.7-3.6-2-4.9l-47.1-47.1"/>
						<path class="st0" d="M788.7,44.3l-83,88.4c-1.3,1.3-1.3,3.5,0,4.9l6.2,6.2c1.3,1.3,3.5,1.3,4.9,0l33.1-33.2l53.5,53.4
							c2.7,2.7,7,2.7,9.7,0l54.3-54.3"/>
					</g>
				</g>
			</g>
		</g>
	</g>
</g>
</svg>
